#!OML:ASF H:\ManfredETheater\Project 1\Capture day 1\Session 1\subject.ASF
:FULLY-SPECIFIED
:DEGREES
91
root 12.549 13.2458 7.3458 -306.949 -78.9733 -22.7074
lowerback 57.6684 -1.00995 0.694348
upperback 13.1046 -3.08568 0.349312
thorax -6.56805 -2.25919 1.4827
lowerneck 3.31276 -8.04469 -15.9296
upperneck -6.02376 -10.819 17.3613
head -0.407553 -5.64516 7.89343
rclavicle -2.54444e-014 -1.68967e-015
rhumerus -30.2814 -4.61997 -79.0779
rradius 57.3785
rwrist -6.7568
rhand -27.8529 -5.10472
rfingers 7.12502
rthumb -1.24385 -35.0808
lclavicle -2.54444e-014 -1.68967e-015
lhumerus -18.8905 1.20514 76.0031
lradius 132.261
lwrist -5.3442
lhand -30.9409 -1.88914
lfingers 7.12502
lthumb -4.2261 28.0487
rfemur -56.1077 -29.4365 -8.50313
rtibia 40.568
rfoot 0.262227 -22.3745
rtoes -28.4652
lfemur -76.9993 24.7959 3.34413
ltibia 84.9708
lfoot -26.3689 -29.1703
ltoes -21.9741
92
root 12.3958 13.2034 6.92009 -310.695 -79.7432 -18.987
lowerback 57.7443 -0.943801 0.455614
upperback 12.987 -3.12612 0.30039
thorax -6.70223 -2.26702 1.55671
lowerneck 3.14491 -8.19961 -16.2415
upperneck -6.50411 -11.006 17.1683
head -0.481927 -5.73149 7.87944
rclavicle -3.18055e-014 -4.87022e-015
rhumerus -30.4214 -4.51213 -78.3611
rradius 57.8353
rwrist -7.57206
rhand -28.9538 -5.60572
rfingers 7.12502
rthumb -2.30713 -35.573
lclavicle -3.18055e-014 -4.87022e-015
lhumerus -18.9549 0.75573 76.8692
lradius 131.24
lwrist -7.16333
lhand -31.2033 -2.47276
lfingers 7.12502
lthumb -4.47947 27.4599
rfemur -57.1977 -29.7382 -8.82266
rtibia 40.5162
rfoot 3.50407 -21.5142
rtoes -30.2036
lfemur -74.9033 25.0771 4.62401
ltibia 83.2037
lfoot -25.7045 -29.3531
ltoes -24.3721
93
root 12.2438 13.1667 6.49185 -315.246 -80.4703 -14.4011
lowerback 57.7067 -0.910342 0.237731
upperback 12.8838 -3.18364 0.284243
thorax -6.81247 -2.28277 1.66274
lowerneck 2.98125 -8.36337 -16.4829
upperneck -7.03771 -11.2051 16.8957
head -0.580692 -5.82341 7.83076
rclavicle 2.22639e-014 2.96189e-014
rhumerus -30.3628 -4.44363 -77.6139
rradius 58.1047
rwrist -8.19802
rhand -29.7673 -5.95618
rfingers 7.12502
rthumb -3.09275 -35.9135
lclavicle 2.22639e-014 2.96189e-014
lhumerus -19.1189 0.596234 77.7005
lradius 130.028
lwrist -8.87586
lhand -31.5251 -3.02861
lfingers 7.12502
lthumb -4.79022 26.8972
rfemur -58.806 -30.055 -9.01546
rtibia 41.7539
rfoot 6.2946 -20.027
rtoes -30.6434
lfemur -72.7164 24.9884 5.97986
ltibia 81.2625
lfoot -24.941 -29.1454
ltoes -26.8248
94
root 12.0916 13.1376 6.06265 -320.977 -81.0563 -8.64318
lowerback 57.6623 -0.976453 0.114053
upperback 12.781 -3.29393 0.295958
thorax -6.92074 -2.32077 1.77997
lowerneck 2.84348 -8.53717 -16.6429
upperneck -7.64506 -11.4206 16.5614
head -0.712716 -5.92465 7.75373
rclavicle -3.18055e-014 -1.95803e-014
rhumerus -30.0976 -4.46529 -76.8455
rradius 58.2027
rwrist -8.62703
rhand -30.2432 -6.15855
rfingers 7.12502
rthumb -3.55236 -36.1087
lclavicle -3.18055e-014 -1.95803e-014
lhumerus -19.3603 0.703955 78.4812
lradius 128.636
lwrist -10.496
lhand -31.946 -3.62205
lfingers 7.12502
lthumb -5.19662 26.2942
rfemur -60.7842 -30.4421 -9.08193
rtibia 44.2016
rfoot 8.0973 -17.9973
rtoes -30.3819
lfemur -70.4292 24.4307 7.40918
ltibia 79.1536
lfoot -24.1698 -28.4694
ltoes -29.5776
95
root 11.9371 13.1173 5.63336 -327.724 -81.4211 -1.95574
lowerback 57.7202 -1.16521 0.138154
upperback 12.6655 -3.45658 0.340701
thorax -7.0485 -2.38152 1.89214
lowerneck 2.74998 -8.72337 -16.7259
upperneck -8.33637 -11.659 16.1909
head -0.881447 -6.03971 7.65909
rclavicle -1.27222e-014 1.42628e-014
rhumerus -29.6285 -4.61135 -76.0593
rradius 58.1477
rwrist -8.87648
rhand -30.3767 -6.22993
rfingers 7.12502
rthumb -3.68123 -36.1779
lclavicle -1.27222e-014 1.42628e-014
lhumerus -19.6465 1.02979 79.2149
lradius 127.067
lwrist -11.9956
lhand -32.5732 -4.25052
lfingers 7.12502
lthumb -5.80212 25.65
rfemur -62.9589 -30.8954 -8.98299
rtibia 47.6283
rfoot 8.568 -15.8199
rtoes -29.9217
lfemur -67.998 23.3765 8.95806
ltibia 76.8841
lfoot -23.2971 -27.4344
ltoes -32.3327
96
root 11.7781 13.1064 5.2048 -334.764 -81.5197 4.88185
lowerback 57.9462 -1.48957 0.358585
upperback 12.5286 -3.66101 0.420897
thorax -7.2099 -2.46091 1.97776
lowerneck 2.71301 -8.92222 -16.7214
upperneck -9.11046 -11.9233 15.7953
head -1.08846 -6.17095 7.55036
rclavicle 6.59965e-014 2.68359e-014
rhumerus -28.9625 -4.88651 -75.2683
rradius 57.9541
rwrist -8.989
rhand -30.2066 -6.19908
rfingers 7.12502
rthumb -3.517 -36.1498
lclavicle 6.59965e-014 2.68359e-014
lhumerus -19.9485 1.5158 79.9179
lradius 125.332
lwrist -13.3475
lhand -33.4522 -4.85564
lfingers 7.12502
lthumb -6.65073 25.0199
rfemur -65.1466 -31.3539 -8.69267
rtibia 51.7316
rfoot 7.62295 -13.7865
rtoes -29.6603
lfemur -65.4011 21.8456 10.6751
ltibia 74.4598
lfoot -22.208 -26.1857
ltoes -34.7843
97
root 11.6127 13.1035 4.77759 -340.973 -81.3835 10.7686
lowerback 58.2796 -1.93713 0.79992
upperback 12.3785 -3.87661 0.539505
thorax -7.39264 -2.54626 2.01654
lowerneck 2.73017 -9.13195 -16.6358
upperneck -9.93964 -12.2121 15.3998
head -1.32382 -6.31785 7.43629
rclavicle -2.06736e-014 -5.14355e-014
rhumerus -28.1147 -5.26963 -74.4896
rradius 57.63
rwrist -9.01828
rhand -29.8062 -6.09622
rfingers 7.12502
rthumb -3.13028 -36.053
lclavicle -2.06736e-014 -5.14355e-014
lhumerus -20.2482 2.11347 80.6066
lradius 123.452
lwrist -14.4966
lhand -34.5326 -5.37888
lfingers 7.12502
lthumb -7.69366 24.4612
rfemur -67.2814 -31.7694 -8.11878
rtibia 56.1887
rfoot 5.63308 -11.9379
rtoes -29.736
lfemur -62.6915 19.9435 12.5858
ltibia 71.8914
lfoot -20.8909 -24.7822
ltoes -36.9296
98
root 11.4399 13.1068 4.35293 -345.71 -81.1013 15.1125
lowerback 58.6268 -2.49261 1.45542
upperback 12.2253 -4.08732 0.684952
thorax -7.5796 -2.63042 1.99157
lowerneck 2.78554 -9.3486 -16.4748
upperneck -10.7819 -12.5182 15.0226
head -1.57241 -6.47658 7.32183
rclavicle 3.18055e-014 -2.56681e-014
rhumerus -27.1037 -5.71374 -73.752
rradius 57.1734
rwrist -9.0117
rhand -29.2793 -5.95675
rfingers 7.12502
rthumb -2.62149 -35.9204
lclavicle 3.18055e-014 -2.56681e-014
lhumerus -20.5427 2.78355 81.2969
lradius 121.455
lwrist -15.4087
lhand -35.7554 -5.74503
lfingers 7.12502
lthumb -8.87374 24.0484
rfemur -69.341 -32.1155 -7.17332
rtibia 60.7044
rfoot 2.72835 -10.3307
rtoes -30.0355
lfemur -59.9345 17.7798 14.6677
ltibia 69.1952
lfoot -19.3399 -23.2508
ltoes -38.7787
